0
SECTION
2
HEADER
9
$INSUNITS
70
4
9
$ACADVER
1
AC1014
9
$HANDSEED
5
FFFF
0
ENDSEC
0
SECTION
2
TABLES
0
TABLE
2
VPORT
5
8
100
AcDbSymbolTable
0
ENDTAB
0
TABLE
2
LTYPE
5
5
100
AcDbSymbolTable
0
LTYPE
5
14
100
AcDbSymbolTableRecord
100
AcDbLinetypeTableRecord
2
BYBLOCK
70
0
0
LTYPE
5
15
100
AcDbSymbolTableRecord
100
AcDbLinetypeTableRecord
2
BYLAYER
70
0
0
LTYPE
5
16
100
AcDbSymbolTableRecord
100
AcDbLinetypeTableRecord
2
DASHED
70
0
3
Dashed __ __ __ __ __ __ __ __ __ __ __ __ __ _
72
65
73
2
40
0.75
49
0.5
74
0
49
-0.25
74
0
0
ENDTAB
0
TABLE
2
LAYER
5
2
100
AcDbSymbolTable
70
2
0
LAYER
5
50
100
AcDbSymbolTableRecord
100
AcDbLayerTableRecord
2
0
70
0
62
7
6
CONTINUOUS
0
ENDTAB
0
TABLE
2
STYLE
5
3
100
AcDbSymbolTable
70
1
0
STYLE
5
11
100
AcDbSymbolTableRecord
100
AcDbTextStyleTableRecord
2
STANDARD
70
0
0
ENDTAB
0
TABLE
2
VIEW
5
6
100
AcDbSymbolTable
70
0
0
ENDTAB
0
TABLE
2
UCS
5
7
100
AcDbSymbolTable
70
0
0
ENDTAB
0
TABLE
2
APPID
5
9
100
AcDbSymbolTable
70
2
0
APPID
5
12
100
AcDbSymbolTableRecord
100
AcDbRegAppTableRecord
2
ACAD
70
0
0
ENDTAB
0
TABLE
2
DIMSTYLE
5
A
100
AcDbSymbolTable
70
1
0
ENDTAB
0
TABLE
2
BLOCK_RECORD
5
1
100
AcDbSymbolTable
70
1
0
BLOCK_RECORD
5
1F
100
AcDbSymbolTableRecord
100
AcDbBlockTableRecord
2
*MODEL_SPACE
0
BLOCK_RECORD
5
1B
100
AcDbSymbolTableRecord
100
AcDbBlockTableRecord
2
*PAPER_SPACE
0
ENDTAB
0
ENDSEC
0
SECTION
2
BLOCKS
0
BLOCK
5
20
100
AcDbEntity
100
AcDbBlockBegin
2
*MODEL_SPACE
0
ENDBLK
5
21
100
AcDbEntity
100
AcDbBlockEnd
0
BLOCK
5
1C
100
AcDbEntity
100
AcDbBlockBegin
2
*PAPER_SPACE
0
ENDBLK
5
1D
100
AcDbEntity
100
AcDbBlockEnd
0
ENDSEC
0
SECTION
2
ENTITIES
0
LWPOLYLINE
5
100
100
AcDbEntity
8
0
100
AcDbPolyline
90
4
70
1
43
0.0
10
-50
20
30
10
100
20
30
10
100
20
-70
10
-50
20
-70
0
LWPOLYLINE
5
101
100
AcDbEntity
8
0
100
AcDbPolyline
90
4
70
1
43
0.0
10
0
20
130
10
100
20
130
10
100
20
60
10
0
20
60
0
SPLINE
5
102
100
AcDbEntity
8
0
100
AcDbSpline
70
0
71
2
72
6
73
3
74
0
42
0.000000001
43
0.0000000001
44
0.0000000001
40
0
40
0
40
0
40
1
40
1
40
1
10
42.159232882416056
20
99.03376847637675
30
0
10
43.422393587982462
20
97.454819978604533
30
0
10
41.053972033417033
20
96.981137098202922
30
0
0
LINE
5
103
100
AcDbEntity
8
0
100
AcDbLine
10
41.053972033417033
20
96.981137098202922
30
0
11
41.053972033417033
21
95.402188600430705
31
0
0
SPLINE
5
104
100
AcDbEntity
8
0
100
AcDbSpline
70
0
71
2
72
6
73
3
74
0
42
0.000000001
43
0.0000000001
44
0.0000000001
40
0
40
0
40
0
40
1
40
1
40
1
10
41.053972033417033
20
95.402188600430705
30
0
10
41.053972033417033
20
87.349555791745402
30
0
10
44.369764117157274
20
84.19166118038676
30
0
0
SPLINE
5
105
100
AcDbEntity
8
0
100
AcDbSpline
70
0
71
2
72
6
73
3
74
0
42
0.000000001
43
0.0000000001
44
0.0000000001
40
0
40
0
40
0
40
1
40
1
40
1
10
44.369764117157274
20
84.19166118038676
30
0
10
44.843444613373094
20
83.875871003995158
30
0
10
45.317129877960497
20
84.19166118038676
30
0
0
SPLINE
5
106
100
AcDbEntity
8
0
100
AcDbSpline
70
0
71
2
72
6
73
3
74
0
42
0.000000001
43
0.0000000001
44
0.0000000001
40
0
40
0
40
0
40
1
40
1
40
1
10
45.317129877960497
20
84.19166118038676
30
0
10
46.580285815155314
20
87.507450879941203
30
0
10
47.685551432525919
20
90.507450403104045
30
0
0
SPLINE
5
107
100
AcDbEntity
8
0
100
AcDbSpline
70
0
71
2
72
6
73
3
74
0
42
0.000000001
43
0.0000000001
44
0.0000000001
40
0
40
0
40
0
40
1
40
1
40
1
10
47.685551432525919
20
90.507450403104045
30
0
10
48.001341608917521
20
90.823240579495646
30
0
10
48.159236697113322
20
90.349557699094035
30
0
0
SPLINE
5
108
100
AcDbEntity
8
0
100
AcDbSpline
70
0
71
2
72
6
73
3
74
0
42
0.000000001
43
0.0000000001
44
0.0000000001
40
0
40
0
40
0
40
1
40
1
40
1
10
48.159236697113322
20
90.349557699094035
30
0
10
47.369761256134325
20
85.139029325375773
30
0
10
47.211866167938524
20
82.454819978604533
30
0
0
SPLINE
5
109
100
AcDbEntity
8
0
100
AcDbSpline
70
0
71
2
72
6
73
3
74
0
42
0.000000001
43
0.0000000001
44
0.0000000001
40
0
40
0
40
0
40
1
40
1
40
1
10
47.211866167938524
20
82.454819978604533
30
0
10
47.843446520721727
20
81.349556745419719
30
0
10
48.317127016937548
20
80.086398424039103
30
0
0
SPLINE
5
110
100
AcDbEntity
8
0
100
AcDbSpline
70
0
71
2
72
6
73
3
74
0
42
0.000000001
43
0.0000000001
44
0.0000000001
40
0
40
0
40
0
40
1
40
1
40
1
10
48.317127016937548
20
80.086398424039103
30
0
10
48.632917193329149
20
78.349554838071086
30
0
10
46.738185671722704
20
78.349554838071086
30
0
0
SPLINE
5
111
100
AcDbEntity
8
0
100
AcDbSpline
70
0
71
2
72
6
73
3
74
0
42
0.000000001
43
0.0000000001
44
0.0000000001
40
0
40
0
40
0
40
1
40
1
40
1
10
46.738185671722704
20
78.349554838071086
30
0
10
44.843444613373094
20
78.349554838071086
30
0
10
42.475023058807665
20
80.560081304440715
30
0
0
SPLINE
5
112
100
AcDbEntity
8
0
100
AcDbSpline
70
0
71
2
72
6
73
3
74
0
42
0.000000001
43
0.0000000001
44
0.0000000001
40
0
40
0
40
0
40
1
40
1
40
1
10
42.475023058807665
20
80.560081304440715
30
0
10
37.896077422058397
20
85.139029325375773
30
0
10
37.89607742205839
20
95.244293512234904
30
0
0
LINE
5
113
100
AcDbEntity
8
0
100
AcDbLine
10
37.89607742205839
20
95.24429351223489
30
0
11
37.89607742205839
21
98.875873388180949
31
0
0
LINE
5
114
100
AcDbEntity
8
0
100
AcDbLine
10
37.89607742205839
20
98.875873388180949
30
0
11
30.31712987796049
21
98.875873388180949
31
0
0
LINE
5
115
100
AcDbEntity
8
0
100
AcDbLine
10
30.31712987796049
20
98.875873388180949
30
0
11
33.00133922473173
21
96.981137098202922
31
0
0
SPLINE
5
116
100
AcDbEntity
8
0
100
AcDbSpline
70
0
71
2
72
6
73
3
74
0
42
0.000000001
43
0.0000000001
44
0.0000000001
40
0
40
0
40
0
40
1
40
1
40
1
10
33.00133922473173
20
96.981137098202922
30
0
10
34.738180426513956
20
95.717978776822306
30
0
10
32.211866167938517
20
95.244293512234904
30
0
0
SPLINE
5
117
100
AcDbEntity
8
0
100
AcDbSpline
70
0
71
2
72
6
73
3
74
0
42
0.000000001
43
0.0000000001
44
0.0000000001
40
0
40
0
40
0
40
1
40
1
40
1
10
32.211866167938517
20
95.244293512234904
30
0
10
30.159234789764689
20
92.086398900876262
30
0
10
28.89607408419829
20
90.665345491299846
30
0
0
SPLINE
5
118
100
AcDbEntity
8
0
100
AcDbSpline
70
0
71
2
72
6
73
3
74
0
42
0.000000001
43
0.0000000001
44
0.0000000001
40
0
40
0
40
0
40
1
40
1
40
1
10
28.89607408419829
20
90.665345491299846
30
0
10
31.738180903351122
20
88.770609201321818
30
0
10
32.843444136535936
20
87.665345968137004
30
0
0
SPLINE
5
119
100
AcDbEntity
8
0
100
AcDbSpline
70
0
71
2
72
6
73
3
74
0
42
0.000000001
43
0.0000000001
44
0.0000000001
40
0
40
0
40
0
40
1
40
1
40
1
10
32.843444136535936
20
87.665345968137004
30
0
10
35.369760779297167
20
85.296924413571574
30
0
10
35.369760779297167
20
83.244293035397746
30
0
0
SPLINE
5
120
100
AcDbEntity
8
0
100
AcDbSpline
70
0
71
2
72
6
73
3
74
0
42
0.000000001
43
0.0000000001
44
0.0000000001
40
0
40
0
40
0
40
1
40
1
40
1
10
35.369760779297167
20
83.244293035397746
30
0
10
35.369760779297167
20
81.349556745419719
30
0
10
33.632917193329149
20
81.349556745419719
30
0
0
SPLINE
5
121
100
AcDbEntity
8
0
100
AcDbSpline
70
0
71
2
72
6
73
3
74
0
42
0.000000001
43
0.0000000001
44
0.0000000001
40
0
40
0
40
0
40
1
40
1
40
1
10
33.632917193329149
20
81.349556745419719
30
0
10
32.685549048340135
20
81.349556745419719
30
0
10
32.053971079742723
20
82.296924890408732
30
0
0
SPLINE
5
122
100
AcDbEntity
8
0
100
AcDbSpline
70
0
71
2
72
6
73
3
74
0
42
0.000000001
43
0.0000000001
44
0.0000000001
40
0
40
0
40
0
40
1
40
1
40
1
10
32.053971079742723
20
82.296924890408732
30
0
10
29.685549525177294
20
85.454819501767375
30
0
10
26.52765252963286
20
87.981136144528605
30
0
0
SPLINE
5
123
100
AcDbEntity
8
0
100
AcDbSpline
70
0
71
2
72
6
73
3
74
0
42
0.000000001
43
0.0000000001
44
0.0000000001
40
0
40
0
40
0
40
1
40
1
40
1
10
26.52765252963286
20
87.981136144528605
30
0
10
20.685548571502977
20
81.823239625821316
30
0
10
12.159231690323169
20
78.507449926266872
30
0
0
SPLINE
5
124
100
AcDbEntity
8
0
100
AcDbSpline
70
0
71
2
72
6
73
3
74
0
42
0.000000001
43
0.0000000001
44
0.0000000001
40
0
40
0
40
0
40
1
40
1
40
1
10
12.159231690323169
20
78.507449926266872
30
0
10
11.369757441437061
20
78.507449926266872
30
0
10
11.843442706024463
20
79.139030279050075
30
0
0
SPLINE
5
125
100
AcDbEntity
8
0
100
AcDbSpline
70
0
71
2
72
6
73
3
74
0
42
0.000000001
43
0.0000000001
44
0.0000000001
40
0
40
0
40
0
40
1
40
1
40
1
10
11.843442706024463
20
79.139030279050075
30
0
10
19.89607313052397
20
84.349556268582546
30
0
10
24.001338271057421
20
90.033767522702433
30
0
0
SPLINE
5
126
100
AcDbEntity
8
0
100
AcDbSpline
70
0
71
2
72
6
73
3
74
0
42
0.000000001
43
0.0000000001
44
0.0000000001
40
0
40
0
40
0
40
1
40
1
40
1
10
24.001338271057421
20
90.033767522702433
30
0
10
20.053968218719767
20
93.033767045865261
30
0
10
15.475021389877604
20
95.086398424039089
30
0
0
SPLINE
5
127
100
AcDbEntity
8
0
100
AcDbSpline
70
0
71
2
72
6
73
3
74
0
42
0.000000001
43
0.0000000001
44
0.0000000001
40
0
40
0
40
0
40
1
40
1
40
1
10
15.475021389877604
20
95.086398424039089
30
0
10
15.001337317383097
20
95.717978776822292
30
0
10
15.948705462372111
20
95.560083688626491
30
0
0
SPLINE
5
128
100
AcDbEntity
8
0
100
AcDbSpline
70
0
71
2
72
6
73
3
74
0
42
0.000000001
43
0.0000000001
44
0.0000000001
40
0
40
0
40
0
40
1
40
1
40
1
10
15.948705462372111
20
95.560083688626491
30
0
10
21.317128924286173
20
94.296925367245876
30
0
10
25.738181857025431
20
92.244293989072062
30
0
0
SPLINE
5
129
100
AcDbEntity
8
0
100
AcDbSpline
70
0
71
2
72
6
73
3
74
0
42
0.000000001
43
0.0000000001
44
0.0000000001
40
0
40
0
40
0
40
1
40
1
40
1
10
25.738181857025431
20
92.244293989072062
30
0
10
27.790813235199259
20
94.770610631833293
30
0
10
29.843444613373087
20
98.875873388180949
30
0
0
LINE
5
130
100
AcDbEntity
8
0
100
AcDbLine
10
29.843444613373087
20
98.875873388180949
30
0
11
15.948705462372113
21
98.875873388180949
31
0
0
LINE
5
131
100
AcDbEntity
8
0
100
AcDbLine
10
15.948705462372113
20
98.875873388180949
30
0
11
15.948705462372111
21
99.823241533169949
31
0
0
LINE
5
132
100
AcDbEntity
8
0
100
AcDbLine
10
15.948705462372111
20
99.823241533169949
30
0
11
37.264497069275187
21
99.823241533169963
31
0
0
LINE
5
133
100
AcDbEntity
8
0
100
AcDbLine
10
37.264497069275187
20
99.823241533169963
30
0
11
39.159230975067423
21
102.03376799953959
31
0
0
LINE
5
134
100
AcDbEntity
8
0
100
AcDbLine
10
39.159230975067423
20
102.03376799953959
30
0
11
42.159232882416056
21
99.03376847637675
31
0
0
SPLINE
5
135
100
AcDbEntity
8
0
100
AcDbSpline
70
0
71
2
72
6
73
3
74
0
42
0.000000001
43
0.0000000001
44
0.0000000001
40
0
40
0
40
0
40
1
40
1
40
1
10
24.317126063263217
20
113.40219050777934
30
0
10
25.896074561035434
20
112.45482236279032
30
0
10
22.896075037872595
20
111.50745183361552
30
0
0
LINE
5
136
100
AcDbEntity
8
0
100
AcDbLine
10
22.896075037872595
20
111.50745183361553
30
0
11
21.63291671649198
21
108.98113757504008
31
0
0
LINE
5
137
100
AcDbEntity
8
0
100
AcDbLine
10
21.63291671649198
20
108.98113757504008
30
0
11
40.422391680633822
21
108.98113757504008
31
0
0
LINE
5
138
100
AcDbEntity
8
0
100
AcDbLine
10
40.422391680633822
20
108.98113757504008
30
0
11
43.580283907806674
21
112.13903218639872
31
0
0
LINE
5
139
100
AcDbEntity
8
0
100
AcDbLine
10
43.580283907806674
20
112.13903218639872
30
0
11
47.21186616793851
21
109.13903266323588
31
0
0
SPLINE
5
140
100
AcDbEntity
8
0
100
AcDbSpline
70
0
71
2
72
6
73
3
74
0
42
0.000000001
43
0.0000000001
44
0.0000000001
40
0
40
0
40
0
40
1
40
1
40
1
10
47.21186616793851
20
109.13903266323588
30
0
10
47.843446520721713
20
108.50745231045268
30
0
10
47.053971079742709
20
108.03376943005107
30
0
0
LINE
5
141
100
AcDbEntity
8
0
100
AcDbLine
10
47.053971079742709
20
108.03376943005105
30
0
11
21.001338747894565
21
108.03376943005105
31
0
0
SPLINE
5
142
100
AcDbEntity
8
0
100
AcDbSpline
70
0
71
2
72
6
73
3
74
0
42
0.000000001
43
0.0000000001
44
0.0000000001
40
0
40
0
40
0
40
1
40
1
40
1
10
21.001338747894568
20
108.03376943005107
30
0
10
17.053968695556922
20
100.77060967815896
30
0
10
11.211863545334147
20
96.823242010007107
30
0
0
SPLINE
5
143
100
AcDbEntity
8
0
100
AcDbSpline
70
0
71
2
72
6
73
3
74
0
42
0.000000001
43
0.0000000001
44
0.0000000001
40
0
40
0
40
0
40
1
40
1
40
1
10
11.211863545334147
20
96.823242010007107
30
0
10
10.422389296448038
20
96.507451833615505
30
0
10
10.896073368942545
20
97.139032186398708
30
0
0
SPLINE
5
144
100
AcDbEntity
8
0
100
AcDbSpline
70
0
71
2
72
6
73
3
74
0
42
0.000000001
43
0.0000000001
44
0.0000000001
40
0
40
0
40
0
40
1
40
1
40
1
10
10.896073368942545
20
97.139032186398708
30
0
10
17.527653960144324
20
104.24429446590921
30
0
10
19.738180426513946
20
115.29692679775737
30
0
0
LINE
5
145
100
AcDbEntity
8
0
100
AcDbLine
10
19.738180426513946
20
115.29692679775737
30
0
11
24.317126063263217
21
113.40219050777934
31
0
0
SPLINE
5
146
100
AcDbEntity
8
0
100
AcDbSpline
70
0
71
2
72
6
73
3
74
0
42
0.000000001
43
0.0000000001
44
0.0000000001
40
0
40
0
40
0
40
1
40
1
40
1
10
42.790813235199259
20
104.87587243450663
30
0
10
43.422393587982462
20
104.24429446590922
30
0
10
42.475023058807658
20
103.77060920132182
30
0
0
LINE
5
147
100
AcDbEntity
8
0
100
AcDbLine
10
42.475023058807658
20
103.77060920132182
30
0
11
19.738180426513956
21
103.7706092013218
31
0
0
LINE
5
148
100
AcDbEntity
8
0
100
AcDbLine
10
19.738180426513956
20
103.7706092013218
30
0
11
19.738180426513953
21
104.71797973049661
31
0
0
LINE
5
149
100
AcDbEntity
8
0
100
AcDbLine
10
19.738180426513953
20
104.71797973049661
30
0
11
37.26449706927518
21
104.71797973049661
31
0
0
LINE
5
150
100
AcDbEntity
8
0
100
AcDbLine
10
37.26449706927518
20
104.71797973049661
30
0
11
39.790811327850626
21
107.24429398907206
31
0
0
LINE
5
151
100
AcDbEntity
8
0
100
AcDbLine
10
39.790811327850626
20
107.24429398907206
30
0
11
42.790813235199259
21
104.87587243450663
31
0
0
SPLINE
5
152
100
AcDbEntity
8
0
100
AcDbSpline
70
0
71
2
72
6
73
3
74
0
42
0.000000001
43
0.0000000001
44
0.0000000001
40
0
40
0
40
0
40
1
40
1
40
1
10
71.685547617828647
20
114.03377086056256
30
0
10
73.422393587982455
20
112.92850762737774
30
0
10
71.053972033417026
20
112.29692727459454
30
0
0
SPLINE
5
153
100
AcDbEntity
8
0
100
AcDbSpline
70
0
71
2
72
6
73
3
74
0
42
0.000000001
43
0.0000000001
44
0.0000000001
40
0
40
0
40
0
40
1
40
1
40
1
10
71.053972033417026
20
112.29692727459454
30
0
10
76.896080759918505
20
103.29692632092022
30
0
10
89.527663973724643
20
98.402190507779352
30
0
0
SPLINE
5
154
100
AcDbEntity
8
0
100
AcDbSpline
70
0
71
2
72
6
73
3
74
0
42
0.000000001
43
0.0000000001
44
0.0000000001
40
0
40
0
40
0
40
1
40
1
40
1
10
89.527663973724643
20
98.402190507779352
30
0
10
87.948703555023471
20
98.08640033138775
30
0
10
87.00134256259183
20
97.139032186398737
30
0
0
SPLINE
5
155
100
AcDbEntity
8
0
100
AcDbSpline
70
0
71
2
72
6
73
3
74
0
42
0.000000001
43
0.0000000001
44
0.0000000001
40
0
40
0
40
0
40
1
40
1
40
1
10
87.00134256259183
20
97.139032186398737
30
0
10
86.053981570160204
20
96.191661657223932
30
0
10
85.422401217377001
20
95.244293512234918
30
0
0
SPLINE
5
156
100
AcDbEntity
8
0
100
AcDbSpline
70
0
71
2
72
6
73
3
74
0
42
0.000000001
43
0.0000000001
44
0.0000000001
40
0
40
0
40
0
40
1
40
1
40
1
10
85.422401217377001
20
95.244293512234918
30
0
10
75.159234789764696
20
101.40219003094219
30
0
10
70.264496592438022
20
111.19166404140972
30
0
0
SPLINE
5
157
100
AcDbEntity
8
0
100
AcDbSpline
70
0
71
2
72
6
73
3
74
0
42
0.000000001
43
0.0000000001
44
0.0000000001
40
0
40
0
40
0
40
1
40
1
40
1
10
70.264496592438022
20
111.19166404140972
30
0
10
62.211866167938517
20
98.244295419583551
30
0
10
51.632919100677775
20
93.823240102658488
30
0
0
SPLINE
5
158
100
AcDbEntity
8
0
100
AcDbSpline
70
0
71
2
72
6
73
3
74
0
42
0.000000001
43
0.0000000001
44
0.0000000001
40
0
40
0
40
0
40
1
40
1
40
1
10
51.632919100677775
20
93.823240102658488
30
0
10
50.843443659698771
20
93.823240102658488
30
0
10
51.317128924286173
20
94.29692536724589
30
0
0
SPLINE
5
159
100
AcDbEntity
8
0
100
AcDbSpline
70
0
71
2
72
6
73
3
74
0
42
0.000000001
43
0.0000000001
44
0.0000000001
40
0
40
0
40
0
40
1
40
1
40
1
10
51.317128924286173
20
94.29692536724589
30
0
10
63.15923192874174
20
103.13903123272442
30
0
10
67.264499453460971
20
115.13903409374737
30
0
0
LINE
5
160
100
AcDbEntity
8
0
100
AcDbLine
10
67.264499453460971
20
115.13903409374737
30
0
11
71.685547617828647
21
114.03377086056256
31
0
0
SPLINE
5
161
100
AcDbEntity
8
0
100
AcDbSpline
70
0
71
2
72
6
73
3
74
0
42
0.000000001
43
0.0000000001
44
0.0000000001
40
0
40
0
40
0
40
1
40
1
40
1
10
82.580289629852587
20
90.66534549129986
30
0
10
84.001340655243212
20
88.770609201321832
30
0
10
81.632919100677782
20
88.612714113126032
30
0
0
LINE
5
162
100
AcDbEntity
8
0
100
AcDbLine
10
81.632919100677768
20
88.612714113126032
30
0
11
81.632919100677782
21
78.823240102658502
31
0
0
LINE
5
163
100
AcDbEntity
8
0
100
AcDbLine
10
81.632919100677782
20
78.823240102658502
30
0
11
80.84344842807036
21
78.3495548380711
31
0
0
SPLINE
5
164
100
AcDbEntity
8
0
100
AcDbSpline
70
0
71
2
72
6
73
3
74
0
42
0.000000001
43
0.0000000001
44
0.0000000001
40
0
40
0
40
0
40
1
40
1
40
1
10
80.84344842807036
20
78.3495548380711
30
0
10
78.475022105133348
20
77.402186693082086
30
0
10
78.001341608917528
20
78.3495548380711
30
0
0
LINE
5
165
100
AcDbEntity
8
0
100
AcDbLine
10
78.001341608917528
20
78.3495548380711
30
0
11
78.001341608917528
21
80.244291128049127
31
0
0
LINE
5
166
100
AcDbEntity
8
0
100
AcDbLine
10
78.001341608917528
20
80.244291128049127
30
0
11
61.580285815155321
21
80.244291128049127
31
0
0
LINE
5
167
100
AcDbEntity
8
0
100
AcDbLine
10
61.580285815155321
20
80.244291128049127
30
0
11
61.580285815155321
21
78.033764661679498
31
0
0
LINE
5
168
100
AcDbEntity
8
0
100
AcDbLine
10
61.580285815155321
20
78.033764661679498
30
0
11
60.790815142547899
21
77.560081781277887
31
0
0
SPLINE
5
169
100
AcDbEntity
8
0
100
AcDbSpline
70
0
71
2
72
6
73
3
74
0
42
0.000000001
43
0.0000000001
44
0.0000000001
40
0
40
0
40
0
40
1
40
1
40
1
10
60.790815142547899
20
77.560081781277887
30
0
10
58.422393587982469
20
76.612713636288873
30
0
10
57.948708323395067
20
77.560081781277887
30
0
0
LINE
5
170
100
AcDbEntity
8
0
100
AcDbLine
10
57.948708323395081
20
77.560081781277887
30
0
11
57.94870832339506
21
93.349557222256891
31
0
0
LINE
5
171
100
AcDbEntity
8
0
100
AcDbLine
10
57.94870832339506
20
93.349557222256891
30
0
11
62.211866167938517
21
91.296925844083063
31
0
0
LINE
5
172
100
AcDbEntity
8
0
100
AcDbLine
10
62.211866167938517
20
91.296925844083063
30
0
11
77.369761256134325
21
91.296925844083063
31
0
0
LINE
5
173
100
AcDbEntity
8
0
100
AcDbLine
10
77.369761256134325
20
91.296925844083063
30
0
11
79.422397402679735
21
93.823240102658502
31
0
0
LINE
5
174
100
AcDbEntity
8
0
100
AcDbLine
10
79.422397402679735
20
93.823240102658502
30
0
11
82.580289629852587
21
90.66534549129986
31
0
0
SPLINE
5
175
100
AcDbEntity
8
0
100
AcDbSpline
70
0
71
2
72
6
73
3
74
0
42
0.000000001
43
0.0000000001
44
0.0000000001
40
0
40
0
40
0
40
1
40
1
40
1
10
78.632921961700731
20
98.717978299985162
30
0
10
79.264507082855502
20
98.08640033138775
30
0
10
78.31713178530913
20
97.612715066800348
30
0
0
LINE
5
176
100
AcDbEntity
8
0
100
AcDbLine
10
78.317131785309115
20
97.612715066800348
30
0
11
60.31712987796049
21
97.612715066800348
31
0
0
LINE
5
177
100
AcDbEntity
8
0
100
AcDbLine
10
60.31712987796049
20
97.612715066800348
30
0
11
60.31712987796049
21
98.560083211789362
31
0
0
LINE
5
178
100
AcDbEntity
8
0
100
AcDbLine
10
60.31712987796049
20
98.560083211789362
30
0
11
73.106603411590868
21
98.560083211789362
31
0
0
LINE
5
179
100
AcDbEntity
8
0
100
AcDbLine
10
73.106603411590868
20
98.560083211789362
30
0
11
75.632920054352098
21
101.08639985455059
31
0
0
LINE
5
180
100
AcDbEntity
8
0
100
AcDbLine
10
75.632920054352098
20
101.08639985455059
30
0
11
78.632921961700731
21
98.717978299985162
31
0
0
LWPOLYLINE
5
181
100
AcDbEntity
8
0
100
AcDbPolyline
90
4
70
1
43
0.0
10
61.580285815155321
20
81.191661657223932
10
78.001341608917528
20
81.191661657223932
10
78.001341608917528
20
90.349557699094049
10
61.580285815155314
20
90.349557699094049
0
LWPOLYLINE
5
182
100
AcDbEntity
8
0
100
AcDbPolyline
90
4
70
1
43
0.0
10
-25
20
-20
10
75.00000111758709
20
-20
10
75.00000111758709
20
-22.450000000000003
10
-25
20
-22.450000000000003
0
ENDSEC
0
SECTION
2
OBJECTS
0
DICTIONARY
5
C
100
AcDbDictionary
3
ACAD_GROUP
350
D
3
ACAD_MLINESTYLE
350
17
0
DICTIONARY
5
D
100
AcDbDictionary
0
DICTIONARY
5
1A
330
C
100
AcDbDictionary
0
DICTIONARY
5
17
100
AcDbDictionary
0
ENDSEC
0
EOF
